<?xml version="1.0" standalone="no"?>
<!DOCTYPE svg PUBLIC "-//W3C//DTD SVG 20010904//EN"
 "http://www.w3.org/TR/2001/REC-SVG-20010904/DTD/svg10.dtd">
<svg version="1.0" xmlns="http://www.w3.org/2000/svg"
 width="338.000000pt" height="207.000000pt" viewBox="0 0 338.000000 207.000000"
 preserveAspectRatio="xMidYMid meet">

<g transform="translate(0.000000,207.000000) scale(0.100000,-0.100000)"
fill="#000000" stroke="none">
<path d="M0 1035 l0 -1035 1690 0 1690 0 -1 368 c0 202 -3 361 -6 355 -2 -7
-14 -13 -26 -13 -19 0 -20 1 -3 13 12 9 15 19 10 32 -8 19 -9 18 -14 -5 -4
-14 -11 -24 -17 -23 -6 1 -10 -5 -9 -15 1 -11 -5 -16 -18 -14 -19 4 -20 -13
-1 -63 4 -11 -2 -5 -14 13 -12 18 -21 38 -21 44 0 7 -7 3 -15 -8 -19 -26 -19
-98 1 -118 8 -9 11 -16 6 -16 -5 0 -7 -20 -4 -46 3 -33 2 -45 -6 -40 -7 4 -13
-6 -17 -28 -5 -26 -11 -33 -24 -29 -15 4 -19 20 -25 80 -9 114 -8 161 7 166 9
4 9 6 0 6 -8 1 -13 15 -13 35 l0 35 53 3 c47 3 52 5 56 28 1 14 8 28 15 32 13
9 -22 80 -73 147 -33 44 -33 46 -28 118 4 54 12 85 31 118 37 62 32 66 -11 9
-20 -27 -52 -67 -70 -88 -18 -22 -33 -46 -33 -54 0 -17 28 -58 96 -139 29 -34
57 -71 64 -82 10 -20 8 -21 -48 -21 l-58 0 -72 90 c-40 50 -79 90 -87 90 -12
0 -15 -17 -15 -84 l0 -84 -31 -6 c-75 -15 -69 -34 -69 240 l0 245 48 -3 47 -3
5 -103 5 -103 36 38 c20 21 55 63 79 93 42 55 43 55 106 61 35 3 67 9 71 12
13 14 -15 29 -61 34 l-46 6 0 41 c0 22 4 48 10 56 7 12 12 12 28 -4 19 -17 20
-17 27 4 9 29 1 35 -46 31 -36 -2 -40 0 -35 16 3 10 8 32 12 48 4 17 20 54 35
84 52 96 34 194 -43 241 -49 30 -97 26 -148 -11 l-44 -32 -185 6 c-103 4 -196
4 -209 1 -23 -7 -66 -79 -56 -95 3 -5 -6 -9 -20 -9 -19 0 -25 6 -28 27 -5 47
-25 36 -77 -41 -28 -41 -51 -78 -51 -81 0 -3 20 -34 45 -69 25 -36 45 -72 45
-80 0 -34 -31 -13 -76 49 -44 63 -47 65 -65 49 -14 -12 -19 -31 -19 -66 0 -35
-4 -48 -13 -46 -8 3 -14 44 -17 139 -6 150 -4 179 16 179 19 0 28 -42 21 -98
l-5 -46 36 39 c21 22 49 54 63 71 14 17 32 34 40 37 8 4 -4 4 -26 0 -22 -3
-50 -14 -62 -25 -21 -20 -21 -20 -28 1 -10 34 -38 43 -82 27 -47 -16 -77 -15
-100 7 -29 26 -187 28 -225 3 -25 -16 -28 -16 -52 -1 -14 10 -35 15 -47 12
-11 -3 -43 0 -70 7 -27 7 -49 10 -49 7 0 -13 -98 -5 -116 9 -11 9 -15 10 -10
3 5 -10 -12 -13 -73 -13 -47 0 -81 4 -81 10 0 6 -5 10 -11 10 -5 0 -7 -4 -4
-10 4 -6 -1 -7 -11 -3 -10 4 -20 0 -26 -10 -12 -23 -25 -21 -31 3 -8 30 -89
29 -109 -2 -14 -20 -14 -20 -10 15 2 20 8 35 12 32 5 -3 12 0 16 6 4 8 3 9 -4
5 -7 -4 -12 -2 -12 3 0 6 -4 11 -10 11 -5 0 -10 -17 -10 -38 0 -44 -22 -83
-35 -62 -4 7 -9 22 -10 34 -1 11 -3 24 -4 27 -2 10 -101 4 -101 -6 0 -5 -5 -3
-10 5 -5 8 -10 10 -10 4 0 -19 -30 -25 -53 -12 -23 13 -28 14 -67 17 -21 1
-22 3 -10 12 12 8 9 10 -12 6 -15 -2 -25 -1 -23 4 3 4 -8 22 -25 41 -24 26
-33 30 -39 19 -6 -10 -12 -4 -21 23 -10 30 -14 34 -29 26 -10 -5 -22 -6 -27
-2 -5 4 -2 -1 5 -10 12 -16 11 -18 -10 -19 -13 -1 -30 -1 -36 0 -7 1 -13 -2
-13 -7 0 -11 29 -49 30 -38 0 5 7 3 15 -4 18 -15 21 -37 3 -23 -7 5 -24 10
-38 10 -25 0 -25 0 3 -10 32 -13 36 -30 5 -25 -18 2 -25 -5 -39 -42 -11 -29
-22 -45 -33 -44 -52 3 -54 4 -79 70 -14 36 -23 73 -20 81 4 11 2 14 -5 9 -8
-5 -10 -2 -6 9 4 8 0 23 -7 33 -7 9 -10 14 -5 10 5 -4 17 -3 27 3 15 8 19 6
19 -6 0 -9 -5 -13 -10 -10 -5 3 -10 -1 -10 -9 0 -23 15 -19 27 7 7 17 5 26 -9
40 -12 11 -18 13 -19 5 0 -7 -4 -4 -9 7 -8 19 -9 19 -9 -2 -1 -13 -7 -23 -14
-23 -18 0 -53 39 -62 68 -6 20 -9 21 -22 10 -13 -10 -17 -10 -20 0 -3 6 -18
12 -34 12 -21 0 -27 -4 -23 -15 5 -12 9 -13 21 -4 10 9 17 9 25 1 7 -7 8 -12
3 -12 -6 0 -3 -5 5 -10 9 -6 10 -10 3 -10 -6 0 -15 5 -18 10 -3 6 -11 10 -16
10 -6 0 -7 -4 -4 -10 3 -5 2 -10 -3 -10 -6 0 -12 7 -16 15 -8 23 -28 18 -21
-5 4 -11 2 -20 -4 -20 -6 0 -11 6 -11 13 0 8 -4 7 -10 -3 -9 -13 -14 -8 -12
12 1 3 -5 9 -13 12 -25 9 -17 -21 11 -43 15 -12 21 -21 15 -21 -7 0 -21 -9
-33 -20 -21 -20 -22 -20 -40 0 -10 10 -18 25 -18 32 0 7 -9 28 -20 46 -19 31
-21 32 -90 32 l-70 0 0 -1035z m125 985 c17 -32 20 -55 4 -27 -6 9 -14 15 -19
12 -5 -3 -11 -1 -15 5 -3 5 -2 10 4 10 6 0 8 7 5 15 -11 27 5 16 21 -15z m43
-52 c-1 -19 2 -41 7 -49 6 -11 4 -10 -7 1 -9 8 -18 36 -21 62 -4 39 -2 45 9
33 7 -7 13 -29 12 -47z m32 -41 c0 -5 -4 -5 -10 -2 -5 3 -10 14 -10 23 0 15 2
15 10 2 5 -8 10 -19 10 -23z m225 -10 c41 -41 60 -103 44 -144 -20 -52 -48
-73 -100 -73 -26 0 -59 4 -73 10 -38 14 -66 66 -66 124 0 41 5 53 34 82 29 29
41 34 81 34 40 0 52 -5 80 -33z m335 29 c0 -3 -4 -8 -10 -11 -5 -3 -10 -1 -10
4 0 6 5 11 10 11 6 0 10 -2 10 -4z m-50 -20 c0 -3 -4 -8 -10 -11 -5 -3 -10 -1
-10 4 0 6 5 11 10 11 6 0 10 -2 10 -4z m24 -12 c3 -8 2 -12 -4 -9 -6 3 -10 10
-10 16 0 14 7 11 14 -7z m97 -41 c13 -16 12 -17 -3 -4 -10 7 -18 15 -18 17 0
8 8 3 21 -13z m-77 -18 c-4 -8 -10 -12 -15 -9 -11 6 -2 24 11 24 5 0 7 -7 4
-15z m-40 -31 c12 -5 16 -21 16 -65 0 -32 4 -59 8 -59 10 0 52 45 81 88 22 31
44 41 55 23 6 -9 -14 -39 -67 -105 -33 -40 -30 -51 35 -125 21 -24 38 -50 38
-57 0 -28 -30 -13 -66 34 -71 89 -84 92 -84 17 0 -48 -3 -55 -19 -55 -19 0
-20 9 -23 148 -4 173 -4 168 26 156z m2444 -8 c61 -33 79 -117 39 -177 -19
-28 -30 -35 -63 -37 -55 -4 -90 11 -114 50 -34 56 -22 125 30 165 20 16 79 16
108 -1z m-2204 -64 l-7 -59 33 -6 c18 -4 48 -7 66 -7 l34 0 0 65 c0 58 2 65
20 65 19 0 20 -7 20 -155 0 -148 -1 -155 -20 -155 -18 0 -20 7 -20 65 l0 65
-50 2 c-27 0 -56 1 -62 2 -10 1 -12 -16 -9 -61 3 -58 1 -63 -18 -63 -20 0 -21
4 -21 150 0 143 1 150 20 150 18 0 19 -5 14 -58z m335 44 c11 -13 111 -289
111 -307 0 -5 -9 -9 -21 -9 -13 0 -23 10 -30 30 -11 29 -13 30 -75 30 -59 0
-65 -2 -76 -25 -11 -24 -28 -32 -40 -19 -6 5 19 85 68 219 14 39 27 76 30 83
5 16 19 15 33 -2z m202 -16 l79 0 0 -34 0 -34 -41 5 -42 6 7 -90 c9 -112 1
-163 -25 -163 -18 0 -19 9 -19 125 l0 124 -35 7 c-31 5 -35 10 -35 36 0 23 4
29 16 24 9 -3 51 -6 95 -6z m266 -32 c45 -37 56 -127 19 -155 l-24 -19 39 -58
c21 -32 39 -60 39 -63 0 -2 -10 -3 -22 -1 -13 2 -39 25 -60 53 -39 52 -85 76
-95 49 -3 -8 -2 -30 1 -49 6 -33 5 -35 -19 -35 l-25 0 0 118 c0 64 -3 133 -6
153 l-6 35 72 -7 c39 -5 79 -14 87 -21z m233 -62 c-49 -84 -50 -89 -50 -166 0
-44 -4 -80 -9 -80 -20 0 -34 34 -41 97 -6 53 -17 83 -49 138 -22 38 -41 75
-41 82 0 26 41 13 58 -18 25 -46 53 -80 61 -75 4 3 17 25 30 50 17 35 30 48
54 54 18 5 33 8 35 7 1 -1 -20 -41 -48 -89z m883 84 l88 0 -3 -27 -3 -28 -182
-3 -183 -2 0 36 0 37 98 -6 c53 -4 137 -7 185 -7z m-720 -102 c40 -115 69
-219 62 -226 -11 -11 -37 10 -50 40 -13 32 -15 33 -72 31 -56 -1 -58 -2 -67
-33 -11 -37 -43 -39 -38 -1 5 32 71 230 88 264 25 47 39 32 77 -75z m-998 82
c3 -5 1 -10 -4 -10 -6 0 -11 5 -11 10 0 6 2 10 4 10 3 0 8 -4 11 -10z m-891
-76 c21 -8 23 -94 2 -94 -8 0 -21 -3 -30 -6 -18 -7 -21 19 -10 75 7 32 11 35
38 25z m226 -120 l0 -125 -30 3 -31 3 -2 112 c-2 103 0 113 18 122 43 21 45
17 45 -115z m130 17 l0 -100 43 -5 c41 -5 280 -13 539 -18 93 -2 130 -7 140
-17 11 -12 10 -13 -6 -7 -14 5 -17 3 -12 -10 6 -15 -7 -16 -151 -8 -87 5 -183
8 -213 6 -55 -2 -345 15 -387 24 -22 4 -23 8 -23 119 l0 115 35 0 35 0 0 -99z
m1920 80 c0 -5 -7 -12 -16 -15 -22 -9 -24 -8 -24 9 0 8 9 15 20 15 11 0 20 -4
20 -9z m306 -23 c-3 -18 -12 -36 -19 -40 -6 -4 -62 -8 -124 -8 -101 0 -113 2
-123 19 -5 11 -10 29 -10 40 0 20 5 21 141 21 l142 0 -7 -32z m79 -4 c30 -39
31 -45 27 -186 l-2 -88 -40 0 -39 0 1 118 c1 64 -2 134 -6 155 -7 33 -6 37 12
37 11 0 32 -16 47 -36z m-2545 -80 l0 -105 -27 3 -28 3 -3 103 -3 102 31 0 30
0 0 -106z m2334 -36 c3 -29 7 -75 9 -101 l5 -48 -32 3 -31 3 -3 85 c-2 71 0
87 14 97 28 21 32 16 38 -39z m106 -49 l0 -100 -32 3 -33 3 -3 84 c-2 70 0 85
15 97 10 7 26 14 36 14 15 0 17 -11 17 -101z m205 39 c10 -81 3 -153 -15 -153
-12 0 -16 19 -18 103 -2 84 0 102 12 102 10 0 17 -16 21 -52z m105 -59 l0
-110 -31 3 -32 3 2 93 c3 111 6 122 37 122 24 0 24 -1 24 -111z m-2862 89 c7
-7 12 -25 12 -40 0 -24 -4 -28 -30 -28 -32 0 -36 11 -24 58 7 24 24 28 42 10z
m2312 -28 c22 -22 23 -27 20 -80 -2 -42 1 -38 -38 -46 -27 -5 -32 -3 -32 12 0
11 9 25 20 32 29 18 25 33 -7 30 -23 -2 -29 1 -31 20 -8 53 30 70 68 32z
m-2255 -120 c4 -11 3 -62 -1 -112 l-7 -92 42 33 c23 18 67 64 98 102 60 72 64
74 137 61 l40 -7 -92 -107 c-51 -59 -92 -112 -92 -118 0 -12 87 -136 143 -203
22 -26 37 -50 35 -53 -3 -2 -31 -2 -62 2 l-57 7 -65 83 c-105 135 -124 137
-124 14 l0 -90 -49 0 -48 0 -5 193 c-3 105 -3 218 0 250 l4 57 49 0 c39 0 49
-4 54 -20z m1718 5 c47 -6 44 -15 -4 -15 -102 0 -244 14 -219 21 22 7 149 3
223 -6z m295 -12 c-10 -2 -28 -2 -40 0 -13 2 -5 4 17 4 22 1 32 -1 23 -4z m55
0 c-7 -2 -19 -2 -25 0 -7 3 -2 5 12 5 14 0 19 -2 13 -5z m-1637 -17 c3 -7 1
-50 -4 -95 l-8 -81 88 0 87 0 3 93 3 92 45 -4 c25 -1 46 -4 48 -6 1 -1 5 -111
9 -244 l6 -241 -34 0 c-78 0 -79 2 -79 105 l0 94 -85 3 -85 3 0 -91 c0 -101
-2 -104 -66 -104 l-34 0 -1 63 c0 34 -4 89 -9 122 -4 34 -3 114 3 183 l11 122
48 0 c32 0 50 -5 54 -14z m429 -62 c4 -36 5 -113 1 -172 -4 -64 -3 -113 3
-122 12 -17 138 -26 161 -11 13 9 14 38 12 180 l-4 170 35 6 c66 13 67 11 72
-110 3 -60 10 -134 17 -162 15 -71 0 -120 -51 -166 -49 -44 -84 -51 -197 -40
l-88 8 -33 43 -33 44 0 199 0 199 49 0 49 0 7 -66z m593 34 l243 -3 -3 -50 -3
-50 -58 0 -57 0 0 -194 0 -193 -22 6 c-13 3 -36 6 -51 6 l-29 0 2 73 c1 39 2
123 1 185 l-1 112 -54 0 -54 0 -4 -179 c-2 -99 -6 -182 -10 -186 -4 -4 -24 -4
-46 0 -39 6 -39 6 -32 43 4 20 15 66 25 101 10 39 14 76 10 95 -4 17 -8 54 -9
81 l-2 50 -62 3 -62 3 0 55 c0 48 2 55 18 50 9 -3 126 -6 260 -8z m592 -27
c54 -27 73 -71 65 -156 -6 -81 -24 -113 -65 -122 -17 -3 -30 -11 -30 -19 0 -7
25 -46 55 -86 30 -40 55 -76 55 -80 0 -5 -24 -8 -52 -8 -49 1 -55 3 -80 38
-15 20 -48 64 -72 97 -46 61 -74 121 -61 133 4 4 39 9 78 12 l72 5 0 45 0 45
-87 3 -88 3 0 -129 c0 -71 -3 -157 -6 -191 l-7 -61 -43 0 -43 0 -3 243 c-2
133 -2 244 -1 247 1 3 64 4 140 2 105 -3 146 -8 173 -21z m216 -159 c-4 -92
-4 -175 0 -185 5 -14 20 -17 85 -17 l79 0 -6 180 -7 180 51 0 52 0 0 -201 0
-201 -39 -39 c-37 -37 -42 -39 -103 -39 -116 0 -150 9 -183 48 l-30 35 0 204
0 203 54 0 54 0 -7 -168z m-2210 -482 c0 -168 0 -170 -22 -170 -12 0 -25 7
-28 16 -3 9 -6 85 -6 170 l0 154 28 0 29 0 -1 -170z m-108 -12 l-3 -173 -29
-3 -29 -4 7 124 c3 68 3 147 -2 176 l-9 52 34 0 33 0 -2 -172z m218 -20 c-4
-106 -9 -194 -11 -196 -2 -2 -15 4 -30 14 -19 13 -25 23 -21 38 3 12 6 92 6
179 l0 157 31 0 32 0 -7 -192z m354 162 c0 -17 -7 -20 -50 -20 -42 0 -50 -3
-50 -19 0 -19 25 -31 68 -31 15 0 22 -6 22 -19 0 -17 -6 -19 -42 -18 -38 2
-43 -1 -46 -20 -3 -21 1 -23 35 -23 44 0 84 -23 68 -39 -6 -6 -36 -7 -72 -4
l-63 6 0 103 0 104 65 0 c58 0 65 -2 65 -20z m-215 -27 c-4 -21 -9 -74 -11
-118 -4 -58 -10 -83 -21 -92 -39 -30 -43 -19 -43 117 l0 130 41 0 41 0 -7 -37z
m300 -40 c4 -43 13 -81 19 -85 6 -4 28 -8 49 -8 31 0 37 -4 37 -20 0 -19 -5
-21 -67 -18 l-68 3 -3 103 c-2 84 0 102 12 102 11 0 16 -20 21 -77z m295 73
c0 -25 -17 -36 -54 -36 -49 0 -71 -12 -63 -34 5 -11 19 -16 52 -16 38 0 45 -3
45 -20 0 -17 -7 -20 -45 -20 -37 0 -45 -3 -45 -19 0 -15 10 -20 55 -26 38 -4
55 -11 55 -21 0 -11 -17 -14 -75 -14 l-75 0 0 105 0 105 75 0 c41 0 75 -2 75
-4z m156 -6 c39 -14 61 -48 38 -57 -9 -3 -25 -1 -35 5 -52 33 -112 -11 -93
-66 13 -37 57 -61 84 -44 29 18 50 15 50 -8 0 -46 -84 -54 -131 -12 -24 21
-32 38 -36 75 -5 43 -3 49 30 82 38 38 48 41 93 25z m202 -12 c22 -22 13 -38
-19 -38 l-31 0 7 -80 c6 -67 5 -80 -8 -80 -15 0 -27 57 -27 125 0 22 -7 38
-22 48 -20 14 -21 18 -8 26 21 15 93 14 108 -1z m185 -20 c26 -30 22 -74 -8
-94 l-26 -17 26 -27 c14 -14 25 -31 25 -38 0 -23 -23 -12 -60 28 -47 51 -60
51 -60 -1 0 -28 -4 -39 -12 -37 -18 6 -24 198 -6 209 22 14 102 -2 121 -23z
m188 9 c27 -20 39 -53 39 -104 0 -64 -25 -93 -79 -93 -43 0 -84 36 -95 82 -7
32 15 94 42 114 21 17 72 17 93 1z m160 -54 c42 -60 59 -57 59 12 0 55 15 74
25 32 9 -35 1 -180 -10 -183 -5 -2 -32 23 -60 56 l-50 59 -3 -60 c-2 -42 -7
-59 -15 -56 -13 4 -23 167 -12 195 7 19 26 3 66 -55z m348 52 c34 -17 45 -39
27 -54 -9 -8 -18 -7 -32 4 -23 18 -56 19 -72 3 -19 -19 -15 -82 6 -101 14 -13
29 -16 64 -11 32 4 48 3 53 -6 12 -20 -24 -40 -71 -40 -111 0 -143 169 -40
210 29 12 33 12 65 -5z m-175 -11 c3 -9 6 -54 6 -100 0 -77 -2 -84 -20 -84
-19 0 -20 7 -20 93 0 52 3 97 7 100 11 11 20 8 27 -9z m370 6 c19 -7 26 -17
26 -35 0 -29 -5 -30 -40 -10 -36 21 -60 19 -60 -5 0 -13 9 -21 28 -26 70 -15
93 -45 72 -98 -8 -23 -15 -26 -56 -26 -30 0 -54 6 -66 17 -30 27 -21 35 36 28
44 -6 54 -4 59 9 6 16 -25 36 -56 36 -26 0 -57 32 -57 57 0 54 51 77 114 53z
m292 -30 c92 0 104 -2 105 -17 1 -16 2 -16 6 -2 3 14 60 35 69 26 2 -2 0 -72
-4 -157 -7 -148 -8 -153 -29 -156 -23 -4 -23 -3 -23 115 0 69 -4 122 -10 126
-5 3 -10 2 -10 -3 0 -5 -65 -8 -144 -8 -159 1 -155 0 -156 65 0 23 2 23 46 17
26 -3 93 -6 150 -6z m-122 -136 c3 -9 6 -38 6 -65 0 -47 -1 -49 -29 -49 -33 0
-41 17 -41 88 0 40 2 42 29 42 17 0 31 -6 35 -16z m190 -2 c2 -4 6 -48 7 -97
2 -74 -1 -91 -13 -93 -12 -2 -17 10 -22 52 -11 85 7 172 28 138z m-74 -71 c0
-39 -4 -73 -10 -76 -5 -3 -21 5 -35 19 -20 20 -25 35 -25 76 l0 50 35 0 35 0
0 -69z m-2065 -10 l120 1 3 -41 3 -41 -113 8 c-62 4 -160 7 -218 7 -58 0 -108
4 -112 10 -15 20 -8 56 12 63 11 4 58 4 103 0 45 -4 136 -7 202 -7z m582 -11
l113 0 0 -37 0 -36 -137 6 c-75 4 -189 7 -255 7 l-118 0 0 28 c0 16 3 32 8 37
4 4 67 5 141 1 74 -3 185 -6 248 -6z m541 -9 l53 -1 -3 -32 c-2 -24 -8 -33
-20 -32 -10 0 -103 1 -208 2 l-190 2 0 35 0 34 158 -3 c86 -2 181 -4 210 -5z
m132 -137 c0 -100 -3 -143 -11 -139 -6 4 -8 14 -4 23 3 8 0 19 -6 23 -7 4 -13
51 -16 123 -5 113 -4 116 16 116 20 0 21 -5 21 -146z m90 1 c0 -116 -3 -145
-14 -145 -16 0 -26 69 -26 175 0 83 7 115 26 115 11 0 14 -28 14 -145z m202
135 c16 0 19 -6 16 -32 l-3 -33 -82 -3 -83 -3 0 34 c0 18 3 37 8 41 4 5 34 5
66 2 32 -3 68 -6 78 -6z m151 -41 c26 -12 47 -47 47 -79 0 -26 -4 -25 -35 6
-27 27 -42 28 -59 1 -8 -12 -5 -21 8 -36 11 -12 25 -21 33 -21 7 0 13 -7 13
-15 0 -22 -53 -19 -75 5 -25 27 -16 107 15 132 26 21 23 21 53 7z m-2182 -32
c19 -12 42 -40 53 -61 16 -32 17 -44 7 -76 -21 -70 -105 -105 -170 -71 -31 17
-61 70 -61 109 0 97 93 151 171 99z m2552 -9 c11 -43 2 -63 -26 -62 -15 0 -79
1 -142 2 l-115 2 0 35 0 34 103 4 c56 1 118 4 138 5 31 2 38 -2 42 -20z
m-1565 -34 c88 -6 93 -7 90 -27 -3 -21 -7 -21 -123 -18 -306 9 -280 6 -283 35
l-3 26 113 -6 c62 -2 155 -7 206 -10z m1772 -10 c80 -48 80 -158 0 -199 -46
-24 -78 -19 -116 19 -30 30 -34 40 -34 86 0 44 4 56 29 81 34 34 77 38 121 13z
m-1512 -14 c26 -25 28 -66 5 -100 -23 -34 -33 -40 -70 -40 -59 0 -85 80 -42
134 26 33 75 35 107 6z m-750 -2 c7 -7 12 -26 12 -43 0 -35 -15 -55 -43 -55
-15 0 -17 5 -12 28 4 20 0 36 -15 55 l-21 27 33 0 c19 0 39 -5 46 -12z m106
-19 c3 -17 6 -47 6 -66 0 -30 -3 -34 -22 -31 -20 3 -23 10 -26 52 -2 27 -1 55
2 62 10 25 33 15 40 -17z m1040 25 c22 -8 20 -27 -4 -49 -11 -10 -20 -23 -20
-28 0 -20 -51 -57 -73 -53 -12 3 -39 8 -59 11 -22 3 -38 12 -38 19 0 22 -46
46 -87 46 -37 0 -80 29 -66 44 4 3 34 6 68 6 58 0 65 -2 108 -40 41 -36 51
-41 90 -39 40 2 43 4 39 27 -3 15 -16 29 -34 36 -15 7 -25 15 -21 19 8 9 76 9
97 1z m318 -17 c7 -8 20 -17 28 -20 8 -4 2 -5 -13 -2 -39 8 -67 -3 -67 -24 0
-21 27 -47 55 -53 14 -3 11 -6 -13 -9 -44 -7 -64 9 -65 53 -2 58 41 89 75 55z
m-1568 -19 c10 -11 24 -68 18 -72 -4 -2 -25 -1 -47 3 -39 6 -40 8 -43 48 l-3
41 36 -8 c20 -5 38 -10 39 -12z m-152 -22 c4 -6 8 -21 8 -33 0 -22 -4 -23 -65
-23 -61 0 -65 2 -71 25 -11 45 -1 52 63 47 32 -3 61 -10 65 -16z m820 -30 c4
-6 8 -16 8 -22 0 -20 -117 -26 -256 -13 -126 11 -134 13 -134 33 0 21 2 21
188 17 125 -2 189 -7 194 -15z m1486 -50 c-2 -1 -75 0 -163 3 l-160 6 -3 27
-3 27 163 3 163 3 3 -34 c2 -18 2 -34 0 -35z"/>
<path d="M291 1871 c-47 -47 -8 -121 65 -121 38 0 74 29 74 59 0 32 -41 71
-81 77 -29 5 -41 2 -58 -15z m76 -53 c-3 -8 -6 -5 -6 6 -1 11 2 17 5 13 3 -3
4 -12 1 -19z"/>
<path d="M3048 1745 c-18 -40 0 -76 45 -94 36 -13 39 -13 62 9 14 13 25 33 25
45 0 59 -108 91 -132 40z m80 -32 c5 -17 -26 -29 -40 -15 -6 6 -7 15 -3 22 9
14 37 9 43 -7z"/>
<path d="M1267 1700 c-3 -8 -13 -37 -22 -63 -9 -27 -15 -51 -12 -53 3 -3 24
-8 46 -11 38 -5 41 -4 41 18 0 33 -46 128 -53 109z"/>
<path d="M1640 1672 c0 -47 2 -50 28 -53 56 -8 72 0 72 35 0 40 -12 52 -62 61
l-38 7 0 -50z"/>
<path d="M2081 1629 c-7 -23 -15 -47 -18 -55 -4 -11 5 -14 36 -14 30 0 41 4
41 15 0 15 -37 95 -44 95 -1 0 -8 -18 -15 -41z"/>
<path d="M1667 743 c-4 -3 -7 -20 -7 -36 0 -28 2 -29 31 -23 17 3 35 6 40 6 5
0 9 9 9 20 0 28 -54 53 -73 33z"/>
<path d="M1880 727 c-36 -18 -41 -78 -8 -101 12 -9 30 -16 40 -16 46 0 65 73
28 110 -23 23 -27 24 -60 7z"/>
<path d="M277 362 c-44 -48 -5 -112 68 -112 48 0 65 16 65 64 0 52 -98 87
-133 48z"/>
<path d="M3070 317 c-38 -19 -40 -77 -4 -106 33 -26 58 -27 84 -1 54 54 -12
141 -80 107z"/>
<path d="M1552 328 c-17 -17 -15 -63 3 -78 20 -16 62 -5 75 20 9 16 6 25 -14
45 -28 28 -46 31 -64 13z"/>
<path d="M190 2060 c7 -4 9 -13 6 -19 -4 -6 0 -19 10 -28 16 -16 16 -16 10 4
-4 12 -2 24 4 28 18 11 11 23 -16 23 -16 0 -21 -3 -14 -8z"/>
<path d="M500 2051 c5 -11 16 -23 23 -27 9 -5 9 -4 0 7 -15 16 -17 29 -3 29 5
0 13 -12 16 -26 5 -19 9 -22 15 -12 7 10 9 10 9 0 0 -7 4 -11 9 -8 5 3 12 -1
15 -10 9 -22 8 -24 -9 -17 -13 5 -14 2 -4 -20 7 -15 16 -24 22 -20 5 3 4 9 -3
13 -9 6 -7 10 6 18 17 10 15 14 -23 51 -44 44 -93 58 -73 22z"/>
<path d="M565 2059 c4 -5 12 -9 20 -9 14 0 35 -50 35 -86 0 -12 7 -29 15 -37
8 -8 11 -17 8 -21 -4 -3 -1 -6 5 -6 16 0 15 11 -3 34 -8 11 -15 27 -15 35 0
14 1 14 10 1 20 -31 9 4 -15 49 -16 30 -33 47 -46 48 -11 1 -17 -2 -14 -8z"/>
<path d="M755 2060 c3 -5 8 -10 11 -10 2 0 4 5 4 10 0 6 -5 10 -11 10 -5 0 -7
-4 -4 -10z"/>
<path d="M813 2063 c9 -2 23 -2 30 0 6 3 -1 5 -18 5 -16 0 -22 -2 -12 -5z"/>
<path d="M881 2050 c16 -33 16 -33 23 -13 4 9 4 14 0 10 -4 -4 -13 1 -21 11
-12 15 -13 14 -2 -8z"/>
<path d="M1160 2060 c0 -6 7 -10 15 -10 8 0 15 2 15 4 0 2 -7 6 -15 10 -8 3
-15 1 -15 -4z"/>
<path d="M432 2040 c0 -14 2 -19 5 -12 2 6 2 18 0 25 -3 6 -5 1 -5 -13z"/>
<path d="M630 2055 c0 -3 9 -23 20 -44 10 -21 16 -42 12 -46 -4 -5 -2 -5 4 -2
13 7 6 57 -7 57 -5 0 -9 6 -9 14 0 8 -4 18 -10 21 -5 3 -10 3 -10 0z"/>
<path d="M660 2054 c0 -12 38 -50 44 -43 2 2 -7 15 -20 29 -13 13 -24 20 -24
14z"/>
<path d="M735 2039 c-4 -6 -3 -15 3 -21 6 -6 11 -4 15 6 7 18 -9 31 -18 15z"/>
<path d="M958 2043 c7 -3 16 -2 19 1 4 3 -2 6 -13 5 -11 0 -14 -3 -6 -6z"/>
<path d="M920 2030 c0 -6 7 -10 15 -10 8 0 15 2 15 4 0 2 -7 6 -15 10 -8 3
-15 1 -15 -4z"/>
<path d="M926 1995 c-5 -15 -31 -16 -53 -2 -8 5 -13 4 -13 -2 0 -6 5 -11 10
-11 6 0 10 -11 10 -25 0 -14 -5 -25 -11 -25 -6 0 -9 6 -6 13 2 6 -10 22 -27
35 -18 13 -32 18 -34 12 -3 -8 -8 -7 -18 1 -11 9 -14 8 -14 -6 0 -12 6 -16 20
-12 23 6 27 -11 5 -19 -8 -4 -15 -10 -15 -15 0 -16 32 4 40 25 7 17 9 18 9 4
1 -10 5 -18 10 -18 5 0 13 -9 16 -21 4 -12 13 -18 20 -15 8 3 16 0 19 -7 3 -9
5 -9 5 1 1 20 27 14 45 -10 9 -13 14 -17 11 -10 -6 11 6 16 33 13 6 -1 12 4
12 11 0 7 11 0 25 -15 14 -15 29 -27 32 -27 4 0 -3 10 -15 23 -30 32 -28 41 6
20 l27 -17 -20 24 c-11 14 -21 27 -22 29 -1 1 -12 -7 -25 -18 -12 -12 -24 -17
-26 -11 -2 5 -8 10 -13 10 -6 0 -7 -4 -4 -10 3 -5 -1 -10 -9 -10 -9 0 -16 7
-16 15 0 8 4 15 10 15 5 0 9 16 7 35 -2 36 -20 47 -31 20z m-6 -24 c0 11 2 11
13 0 10 -11 9 -14 -1 -18 -6 -3 -10 -9 -6 -14 3 -5 -4 -9 -14 -9 -15 0 -20 6
-18 24 1 18 4 22 14 14 8 -7 12 -7 12 3z"/>
<path d="M720 1990 c0 -5 5 -10 10 -10 6 0 10 5 10 10 0 6 -4 10 -10 10 -5 0
-10 -4 -10 -10z"/>
<path d="M1205 1991 c-3 -5 -1 -12 5 -16 5 -3 10 1 10 9 0 18 -6 21 -15 7z"/>
<path d="M1154 1965 c20 -30 20 -35 2 -35 -7 0 -21 10 -29 23 -9 12 -16 17
-16 10 -1 -20 31 -45 50 -40 13 4 19 0 20 -11 0 -11 2 -12 6 -5 4 12 -33 83
-44 83 -3 0 2 -11 11 -25z"/>
<path d="M990 1976 c0 -2 7 -6 15 -10 8 -3 15 -1 15 4 0 6 -7 10 -15 10 -8 0
-15 -2 -15 -4z"/>
<path d="M1084 1954 c3 -9 6 -18 6 -20 0 -2 4 -4 9 -4 5 0 7 9 4 20 -3 11 -10
20 -15 20 -6 0 -7 -7 -4 -16z"/>
<path d="M970 1950 c0 -5 7 -10 16 -10 8 0 12 5 9 10 -3 6 -10 10 -16 10 -5 0
-9 -4 -9 -10z"/>
<path d="M1050 1951 c0 -5 7 -14 15 -21 16 -14 18 -10 9 14 -6 17 -24 22 -24
7z"/>
<path d="M1204 1941 c11 -12 26 -18 39 -14 12 2 27 5 33 5 16 2 13 28 -3 28
-7 0 -13 -4 -13 -8 0 -4 -9 -8 -20 -9 -11 -1 -20 2 -20 8 0 5 -7 9 -17 9 -15
0 -15 -2 1 -19z"/>
<path d="M820 1933 c1 -14 25 -38 40 -41 10 -2 6 6 -9 22 -26 27 -31 31 -31
19z"/>
<path d="M1255 1910 c-3 -6 1 -7 9 -4 15 6 21 -6 16 -31 -1 -5 2 -6 7 -2 11
12 11 31 -2 39 -14 10 -23 10 -30 -2z"/>
<path d="M1107 1890 c3 -11 9 -20 14 -20 11 0 11 3 3 24 -9 23 -23 20 -17 -4z"/>
<path d="M1200 1900 c0 -13 11 -13 30 0 12 8 11 10 -7 10 -13 0 -23 -4 -23
-10z"/>
<path d="M1080 1879 c0 -5 5 -7 10 -4 6 3 10 8 10 11 0 2 -4 4 -10 4 -5 0 -10
-5 -10 -11z"/>
<path d="M1412 1870 c-7 -11 -8 -20 -3 -20 5 0 7 -8 5 -18 -4 -13 2 -17 26
-18 23 -1 30 2 26 12 -4 12 -1 12 17 -1 15 -9 27 -11 37 -5 9 6 10 10 3 10 -6
0 -15 9 -18 20 -3 11 -11 20 -16 20 -6 0 -5 -8 1 -21 11 -19 10 -20 -12 -6
-13 8 -31 13 -41 12 -14 -3 -16 1 -12 16 8 25 3 24 -13 -1z"/>
<path d="M1246 1867 c3 -10 9 -15 12 -12 3 3 0 11 -7 18 -10 9 -11 8 -5 -6z"/>
<path d="M1527 1857 c-3 -9 1 -18 9 -21 16 -6 18 2 5 22 -7 11 -9 11 -14 -1z"/>
<path d="M1370 1851 c0 -6 4 -13 10 -16 6 -3 7 1 4 9 -7 18 -14 21 -14 7z"/>
</g>
</svg>
